<svg width="25" height="25" viewBox="0 0 25 25" fill="none" xmlns="http://www.w3.org/2000/svg">
<g clip-path="url(#clip0_6966_247)">
<path d="M19.3232 13.2812C19.3276 14.3599 19.6476 15.4137 20.2438 16.3126C20.8399 17.2116 21.6862 17.9163 22.6782 18.34C22.2759 19.6026 21.6932 20.8004 20.9482 21.8962C19.9057 23.4187 18.8232 24.9362 17.1207 24.9675C15.4457 24.9987 14.9082 23.975 12.9957 23.975C11.082 23.975 10.4832 24.9362 8.90196 25C7.25696 25.0612 6.00571 23.3525 4.95446 21.835C2.80446 18.73 1.16447 13.0637 3.36696 9.23875C3.88424 8.31345 4.63281 7.53825 5.53947 6.98895C6.44612 6.43966 7.47982 6.13508 8.53946 6.105C10.1545 6.07375 11.677 7.19125 12.6645 7.19125C13.6507 7.19125 15.502 5.8475 17.4495 6.045C18.3519 6.07637 19.2348 6.31666 20.0286 6.74699C20.8225 7.17732 21.5056 7.78594 22.0245 8.525C21.2086 9.0244 20.5329 9.72277 20.0606 10.5547C19.5884 11.3865 19.3338 12.3247 19.3232 13.2812ZM16.1745 3.99125C17.1193 2.8854 17.5876 1.45031 17.477 0C16.0529 0.138192 14.7357 0.816248 13.7957 1.895C13.3262 2.41724 12.9667 3.02877 12.7388 3.69306C12.511 4.35735 12.4194 5.06075 12.4695 5.76125C13.1822 5.77199 13.8879 5.61783 14.5312 5.31079C15.1746 5.00375 15.7382 4.55215 16.1782 3.99125H16.1745Z" fill="#00350E"/>
</g>
<defs>
<clipPath id="clip0_6966_247">
<rect width="25" height="25.0016" fill="white"/>
</clipPath>
</defs>
</svg>
