<svg width="30" height="23" viewBox="0 0 30 23" fill="none" xmlns="http://www.w3.org/2000/svg">
<g clip-path="url(#clip0_6966_121)">
<path d="M6.82049 22.6941V11.1064L3.22678 7.81866L0.00421143 5.99421V20.6492C0.00421143 21.7806 0.920944 22.6941 2.04914 22.6941H6.82049Z" fill="#00350E"/>
<path d="M23.1795 22.6941H27.9509C29.0824 22.6941 29.9958 21.7773 29.9958 20.6492V5.99433L26.3457 8.08401L23.1795 11.1064V22.6941Z" fill="#00350E"/>
<path d="M6.82055 11.1064L6.33154 6.5787L6.82055 2.24527L15 8.37995L23.1795 2.24527L23.7265 6.34474L23.1795 11.1064L15 17.241L6.82055 11.1064Z" fill="#00350E"/>
<path d="M23.1795 2.24527V11.1064L29.9958 5.99421V3.26768C29.9958 0.738902 27.1091 -0.702682 25.0882 0.813881L23.1795 2.24527Z" fill="#00350E"/>
<path d="M0.00427246 5.99423L3.13921 8.34552L6.82055 11.1064V2.24529L4.91187 0.813898C2.88744 -0.702782 0.00427246 0.73892 0.00427246 3.26758V5.99423Z" fill="#00350E"/>
</g>
<defs>
<clipPath id="clip0_6966_121">
<rect width="30" height="22.6108" fill="white" transform="translate(0 0.194603)"/>
</clipPath>
</defs>
</svg>
