<svg width="98" height="96" viewBox="0 0 98 96" fill="none" xmlns="http://www.w3.org/2000/svg">
<path d="M79 42.5H75.5V35.2014C75.5 31.3354 72.366 28.2014 68.5 28.2014H12C8.134 28.2014 5 31.3354 5 35.2014V67.1652C5 67.9711 5.15378 68.7696 5.45309 69.5179C6.09696 71.1276 7.37243 72.403 8.98212 73.0469C9.73039 73.3462 10.5289 73.5 11.3348 73.5H40C41.1046 73.5 42 74.3954 42 75.5C42 76.6046 41.1046 77.5 40 77.5H6.40667C6.04694 77.5 5.69013 77.4353 5.3533 77.309L4.20133 76.877C3.43516 76.5897 2.8196 76.0019 2.49726 75.2498L2.24256 74.6555C2.08252 74.282 2 73.88 2 73.4737V14.5139C2 13.9216 2.17531 13.3426 2.50385 12.8498L3.1094 11.9415C3.3291 11.6119 3.61189 11.3291 3.94145 11.1094L4.85246 10.5021C5.34351 10.1747 5.92048 10 6.51065 10C8.16162 10 9.5 11.3384 9.5 12.9893V15.2997C9.5 15.9501 9.59065 16.5974 9.76933 17.2228L9.9727 17.9346C10.5117 19.8212 11.8179 21.395 13.5729 22.2725L14.5498 22.761C15.5218 23.247 16.5936 23.5 17.6803 23.5H19.9861C21.3681 23.5 22.7192 23.0909 23.869 22.3244L24.6273 21.8188C25.5315 21.216 26.2829 20.411 26.8221 19.4675L27.5777 18.1452C28.1821 17.0875 28.5 15.8904 28.5 14.6722V13C28.5 11.3431 29.8431 10 31.5 10H49C50.6569 10 52 11.3431 52 13V14.9737C52 15.9217 52.1926 16.8598 52.566 17.7311L53.0016 18.7476C53.6013 20.1469 54.6408 21.3126 55.9627 22.0679L56.8549 22.5777C57.9125 23.1821 59.1096 23.5 60.3278 23.5H62.6722C63.8904 23.5 65.0875 23.1821 66.1451 22.5777L67.0373 22.0679C68.3592 21.3126 69.3987 20.1469 69.9984 18.7476L70.434 17.7311C70.8074 16.8598 71 15.9217 71 14.9737V12.9893C71 11.3384 72.3384 10 73.9893 10C74.5795 10 75.1565 10.1747 75.6475 10.5021L76.7872 11.2619C77.0273 11.4219 77.2431 11.6158 77.4278 11.8375L78.3047 12.8897C78.754 13.4288 79 14.1084 79 14.8102V42.5Z" fill="#00350E" stroke="#00350E" stroke-width="4" stroke-linejoin="round"/>
<path d="M61.9144 18H61.0856C60.4765 18 59.8809 17.8197 59.374 17.4818C59.0351 17.2558 58.7442 16.9649 58.5182 16.626C58.1803 16.1191 58 15.5235 58 14.9144V3.14137C58 2.54317 58.2376 1.96947 58.6606 1.54649C58.7656 1.44146 58.8808 1.34707 59.0044 1.26468L59.147 1.16958C59.8019 0.732981 60.5714 0.5 61.3585 0.5H61.6415C62.4286 0.5 63.1981 0.732981 63.853 1.16958L63.9956 1.26468C64.1192 1.34707 64.2344 1.44146 64.3394 1.54649C64.7624 1.96947 65 2.54317 65 3.14137V14.9144C65 15.5235 64.8197 16.1191 64.4818 16.626C64.2558 16.9649 63.9649 17.2558 63.626 17.4818C63.1191 17.8197 62.5235 18 61.9144 18Z" fill="#00350E" stroke="#00350E" stroke-linejoin="round"/>
<path d="M19.4144 18H18.5856C17.9765 18 17.3809 17.8197 16.874 17.4818C16.5351 17.2558 16.2442 16.9649 16.0182 16.626C15.6803 16.1191 15.5 15.5235 15.5 14.9144V3.14137C15.5 2.54317 15.7376 1.96947 16.1606 1.54649C16.2656 1.44146 16.3808 1.34707 16.5044 1.26468L16.647 1.16958C17.3019 0.732981 18.0714 0.5 18.8585 0.5H19.1415C19.9286 0.5 20.6981 0.732981 21.353 1.16958L21.4956 1.26468C21.6192 1.34707 21.7344 1.44146 21.8394 1.54649C22.2624 1.96947 22.5 2.54317 22.5 3.14137V14.9144C22.5 15.5235 22.3197 16.1191 21.9818 16.626C21.7558 16.9649 21.4649 17.2558 21.126 17.4818C20.6191 17.8197 20.0235 18 19.4144 18Z" fill="#00350E" stroke="#00350E" stroke-linejoin="round"/>
<circle cx="22.5" cy="42" r="6" fill="#00350E"/>
<circle cx="40.5" cy="60" r="6" fill="#00350E"/>
<circle cx="22.5" cy="60" r="6" fill="#00350E"/>
<circle cx="58.5" cy="42" r="6" fill="#00350E"/>
<circle cx="40.5" cy="42" r="6" fill="#00350E"/>
<mask id="path-9-inside-1_6973_333" fill="white">
<path d="M97.5 72.5C97.5 85.4787 86.9787 96 74 96C61.0213 96 50.5 85.4787 50.5 72.5C50.5 59.5213 61.0213 49 74 49C86.9787 49 97.5 59.5213 97.5 72.5ZM58.49 72.5C58.49 81.0659 65.4341 88.01 74 88.01C82.5659 88.01 89.51 81.0659 89.51 72.5C89.51 63.9341 82.5659 56.99 74 56.99C65.4341 56.99 58.49 63.9341 58.49 72.5Z"/>
</mask>
<path d="M97.5 72.5C97.5 85.4787 86.9787 96 74 96C61.0213 96 50.5 85.4787 50.5 72.5C50.5 59.5213 61.0213 49 74 49C86.9787 49 97.5 59.5213 97.5 72.5ZM58.49 72.5C58.49 81.0659 65.4341 88.01 74 88.01C82.5659 88.01 89.51 81.0659 89.51 72.5C89.51 63.9341 82.5659 56.99 74 56.99C65.4341 56.99 58.49 63.9341 58.49 72.5Z" stroke="#00350E" stroke-width="16" mask="url(#path-9-inside-1_6973_333)"/>
<path d="M65.6981 76.5C65.6981 77.6046 66.5936 78.5 67.6981 78.5H78.1981C79.3027 78.5 80.1981 77.6046 80.1981 76.5V66.5C80.1981 65.3954 79.3027 64.5 78.1981 64.5H76.1981C75.0936 64.5 74.1981 65.3954 74.1981 66.5V71C74.1981 72.1046 73.3027 73 72.1981 73H67.6981C66.5936 73 65.6981 73.8954 65.6981 75V76.5Z" fill="#00350E" stroke="#00350E" stroke-linejoin="round"/>
</svg>
