<svg width="193" height="143" viewBox="0 0 193 143" fill="none" xmlns="http://www.w3.org/2000/svg">
<path d="M1.84 120.64C0.613333 122.8 0 125.253 0 128C0 130.747 0.613333 133.2 1.84 135.36C3.09333 137.52 4.78667 139.213 6.92 140.44C9.08 141.64 11.4933 142.24 14.16 142.24C17.3067 142.24 20.04 141.453 22.36 139.88C24.7067 138.28 26.3467 136.053 27.28 133.2H20.84C20.2 134.533 19.2933 135.547 18.12 136.24C16.9733 136.907 15.64 137.24 14.12 137.24C12.4933 137.24 11.04 136.867 9.76 136.12C8.50667 135.347 7.52 134.267 6.8 132.88C6.10667 131.467 5.76 129.84 5.76 128C5.76 126.133 6.10667 124.507 6.8 123.12C7.52 121.733 8.50667 120.667 9.76 119.92C11.04 119.147 12.4933 118.76 14.12 118.76C15.64 118.76 16.9733 119.093 18.12 119.76C19.2933 120.427 20.2 121.427 20.84 122.76H27.28C26.3467 119.933 24.7067 117.72 22.36 116.12C20.0133 114.52 17.28 113.72 14.16 113.72C11.4933 113.72 9.08 114.333 6.92 115.56C4.78667 116.76 3.09333 118.453 1.84 120.64Z" fill="url(#paint0_linear_6976_336)"/>
<path d="M37.6631 142V112.4H32.0631V142H37.6631Z" fill="url(#paint1_linear_6976_336)"/>
<path d="M73.9053 141.4C75.3453 142.04 76.972 142.36 78.7853 142.36C80.5453 142.36 82.0786 142.08 83.3853 141.52C84.7186 140.933 85.732 140.133 86.4253 139.12C87.1453 138.107 87.5053 136.96 87.5053 135.68C87.4786 134.213 87.0786 133.04 86.3053 132.16C85.5586 131.253 84.6653 130.587 83.6253 130.16C82.5853 129.733 81.2653 129.32 79.6653 128.92C78.092 128.52 76.932 128.133 76.1853 127.76C75.4386 127.36 75.0653 126.787 75.0653 126.04C75.0653 125.373 75.332 124.853 75.8653 124.48C76.4253 124.107 77.212 123.92 78.2253 123.92C79.3186 123.92 80.1853 124.187 80.8253 124.72C81.492 125.227 81.8653 125.92 81.9453 126.8H87.3053C87.1453 124.56 86.2786 122.787 84.7053 121.48C83.132 120.147 81.0253 119.48 78.3853 119.48C76.5986 119.48 75.0386 119.773 73.7053 120.36C72.3986 120.947 71.3853 121.747 70.6653 122.76C69.972 123.773 69.6253 124.893 69.6253 126.12C69.6253 127.613 69.9986 128.8 70.7453 129.68C71.5186 130.56 72.4253 131.213 73.4653 131.64C74.532 132.067 75.892 132.48 77.5453 132.88C79.1453 133.307 80.3053 133.707 81.0253 134.08C81.772 134.427 82.1453 134.96 82.1453 135.68C82.1453 136.347 81.8386 136.893 81.2253 137.32C80.6386 137.747 79.812 137.96 78.7453 137.96C77.652 137.96 76.732 137.68 75.9853 137.12C75.2653 136.56 74.852 135.853 74.7453 135H69.1053C69.1853 136.36 69.6386 137.6 70.4653 138.72C71.3186 139.84 72.4653 140.733 73.9053 141.4Z" fill="url(#paint2_linear_6976_336)"/>
<path d="M95.7022 141.4C97.1422 142.04 98.7689 142.36 100.582 142.36C102.342 142.36 103.876 142.08 105.182 141.52C106.516 140.933 107.529 140.133 108.222 139.12C108.942 138.107 109.302 136.96 109.302 135.68C109.276 134.213 108.876 133.04 108.102 132.16C107.356 131.253 106.462 130.587 105.422 130.16C104.382 129.733 103.062 129.32 101.462 128.92C99.8889 128.52 98.7289 128.133 97.9822 127.76C97.2355 127.36 96.8622 126.787 96.8622 126.04C96.8622 125.373 97.1289 124.853 97.6622 124.48C98.2222 124.107 99.0089 123.92 100.022 123.92C101.116 123.92 101.982 124.187 102.622 124.72C103.289 125.227 103.662 125.92 103.742 126.8H109.102C108.942 124.56 108.076 122.787 106.502 121.48C104.929 120.147 102.822 119.48 100.182 119.48C98.3955 119.48 96.8355 119.773 95.5022 120.36C94.1955 120.947 93.1822 121.747 92.4622 122.76C91.7689 123.773 91.4222 124.893 91.4222 126.12C91.4222 127.613 91.7955 128.8 92.5422 129.68C93.3155 130.56 94.2222 131.213 95.2622 131.64C96.3289 132.067 97.6889 132.48 99.3422 132.88C100.942 133.307 102.102 133.707 102.822 134.08C103.569 134.427 103.942 134.96 103.942 135.68C103.942 136.347 103.636 136.893 103.022 137.32C102.436 137.747 101.609 137.96 100.542 137.96C99.4489 137.96 98.5289 137.68 97.7822 137.12C97.0622 136.56 96.6489 135.853 96.5422 135H90.9022C90.9822 136.36 91.4355 137.6 92.2622 138.72C93.1155 139.84 94.2622 140.733 95.7022 141.4Z" fill="url(#paint3_linear_6976_336)"/>
<path d="M137.059 142V114.08H131.459V125.56H119.499V114.08H113.899V142H119.499V130.12H131.459V142H137.059Z" fill="url(#paint4_linear_6976_336)"/>
<path d="M163.491 142V119.84H157.851V132.04C157.851 133.8 157.411 135.16 156.531 136.12C155.651 137.053 154.438 137.52 152.891 137.52C151.371 137.52 150.171 137.053 149.291 136.12C148.411 135.16 147.971 133.8 147.971 132.04V119.84H142.371V132.84C142.371 134.813 142.744 136.52 143.491 137.96C144.264 139.373 145.318 140.453 146.651 141.2C147.984 141.92 149.518 142.28 151.251 142.28C152.611 142.28 153.864 142.013 155.011 141.48C156.184 140.92 157.131 140.16 157.851 139.2V142H163.491Z" fill="url(#paint5_linear_6976_336)"/>
<path d="M127.983 14.8102V44C127.983 44.2761 127.759 44.5 127.483 44.5H121.483C120.931 44.5 120.483 44.0523 120.483 43.5V35.2014C120.483 32.44 118.244 30.2014 115.483 30.2014H58.9828C56.2214 30.2014 53.9828 32.44 53.9828 35.2014V67.1652C53.9828 67.7167 54.088 68.2631 54.2929 68.7751C54.7334 69.8766 55.6062 70.7494 56.7077 71.19C57.2197 71.3948 57.7661 71.5 58.3176 71.5H86.9828C89.1919 71.5 90.9828 73.2909 90.9828 75.5C90.9828 77.7091 89.1919 79.5 86.9828 79.5H53.3895C52.7899 79.5 52.1953 79.3922 51.6339 79.1816L50.4819 78.7497C49.2049 78.2708 48.179 77.2911 47.6418 76.0376L47.3871 75.4433C47.1204 74.8209 46.9828 74.1509 46.9828 73.4737V14.5139C46.9828 13.5268 47.275 12.5617 47.8226 11.7404L48.4281 10.8321C48.7943 10.2828 49.2656 9.81147 49.8149 9.4453L50.7259 8.83796C51.5455 8.29157 52.5084 8 53.4935 8C56.249 8 58.4828 10.2338 58.4828 12.9893V15.2997C58.4828 15.7643 58.5476 16.2266 58.6752 16.6733L58.8786 17.3851C59.2636 18.7327 60.1965 19.8569 61.4501 20.4837L62.4271 20.9721C63.1214 21.3193 63.8869 21.5 64.6632 21.5H66.9689C67.9561 21.5 68.9211 21.2078 69.7424 20.6603L70.5007 20.1547C71.1466 19.7242 71.6833 19.1491 72.0684 18.4752L72.824 17.1529C73.2557 16.3974 73.4828 15.5423 73.4828 14.6722V13C73.4828 10.2386 75.7214 8 78.4828 8H95.9828C98.7442 8 100.983 10.2386 100.983 13V14.9737C100.983 15.6508 101.12 16.3209 101.387 16.9433L101.823 17.9598C102.251 18.9593 102.994 19.7919 103.938 20.3314L104.83 20.8412C105.585 21.2729 106.441 21.5 107.311 21.5H109.655C110.525 21.5 111.38 21.2729 112.136 20.8412L113.028 20.3314C113.972 19.7919 114.715 18.9593 115.143 17.9598L115.579 16.9433C115.845 16.3209 115.983 15.6508 115.983 14.9737V12.9893C115.983 10.2338 118.217 8 120.972 8C121.957 8 122.92 8.29157 123.74 8.83796L124.879 9.59775C125.28 9.86452 125.639 10.1876 125.947 10.5571L126.824 11.6093C127.573 12.5079 127.983 13.6406 127.983 14.8102Z" fill="url(#paint6_linear_6976_336)"/>
<path d="M108.897 18.5H108.068C107.361 18.5 106.669 18.2905 106.079 17.8978C105.686 17.6352 105.348 17.2972 105.085 16.9033C104.692 16.3143 104.483 15.6222 104.483 14.9144V3.14137C104.483 2.41056 104.773 1.70969 105.29 1.19293C105.418 1.06462 105.559 0.949304 105.71 0.848651L105.852 0.753557C106.59 0.2622 107.456 0 108.341 0H108.624C109.51 0 110.376 0.2622 111.113 0.753557L111.256 0.848651C111.407 0.949304 111.547 1.06462 111.676 1.19293C112.192 1.70969 112.483 2.41056 112.483 3.14137V14.9144C112.483 15.6222 112.273 16.3143 111.881 16.9033C111.618 17.2972 111.28 17.6352 110.886 17.8978C110.297 18.2905 109.605 18.5 108.897 18.5Z" fill="url(#paint7_linear_6976_336)"/>
<path d="M66.3972 18.5H65.5685C64.8606 18.5 64.1685 18.2905 63.5795 17.8978C63.1856 17.6352 62.8476 17.2972 62.585 16.9033C62.1924 16.3143 61.9828 15.6222 61.9828 14.9144V3.14137C61.9828 2.41056 62.2731 1.70969 62.7899 1.19293C62.9182 1.06462 63.0589 0.949304 63.2098 0.848651L63.3525 0.753557C64.0895 0.2622 64.9555 0 65.8413 0H66.1243C67.0101 0 67.8761 0.2622 68.6132 0.753557L68.7558 0.848651C68.9068 0.949304 69.0474 1.06462 69.1757 1.19293C69.6925 1.70969 69.9828 2.41056 69.9828 3.14137V14.9144C69.9828 15.6222 69.7733 16.3143 69.3806 16.9033C69.118 17.2972 68.78 17.6352 68.3861 17.8978C67.7971 18.2905 67.1051 18.5 66.3972 18.5Z" fill="url(#paint8_linear_6976_336)"/>
<path d="M69.4828 48C72.7965 48 75.4828 45.3137 75.4828 42C75.4828 38.6863 72.7965 36 69.4828 36C66.1691 36 63.4828 38.6863 63.4828 42C63.4828 45.3137 66.1691 48 69.4828 48Z" fill="url(#paint9_linear_6976_336)"/>
<path d="M87.4828 66C90.7965 66 93.4828 63.3137 93.4828 60C93.4828 56.6863 90.7965 54 87.4828 54C84.1691 54 81.4828 56.6863 81.4828 60C81.4828 63.3137 84.1691 66 87.4828 66Z" fill="url(#paint10_linear_6976_336)"/>
<path d="M69.4828 66C72.7965 66 75.4828 63.3137 75.4828 60C75.4828 56.6863 72.7965 54 69.4828 54C66.1691 54 63.4828 56.6863 63.4828 60C63.4828 63.3137 66.1691 66 69.4828 66Z" fill="url(#paint11_linear_6976_336)"/>
<path d="M105.483 48C108.797 48 111.483 45.3137 111.483 42C111.483 38.6863 108.797 36 105.483 36C102.169 36 99.4828 38.6863 99.4828 42C99.4828 45.3137 102.169 48 105.483 48Z" fill="url(#paint12_linear_6976_336)"/>
<path d="M87.4828 48C90.7965 48 93.4828 45.3137 93.4828 42C93.4828 38.6863 90.7965 36 87.4828 36C84.1691 36 81.4828 38.6863 81.4828 42C81.4828 45.3137 84.1691 48 87.4828 48Z" fill="url(#paint13_linear_6976_336)"/>
<path fill-rule="evenodd" clip-rule="evenodd" d="M144.483 72.5C144.483 85.4787 133.962 96 120.983 96C108.004 96 97.4828 85.4787 97.4828 72.5C97.4828 59.5213 108.004 49 120.983 49C133.962 49 144.483 59.5213 144.483 72.5ZM120.983 88.01C112.417 88.01 105.473 81.0659 105.473 72.5C105.473 63.9341 112.417 56.99 120.983 56.99C129.549 56.99 136.493 63.9341 136.493 72.5C136.493 81.0659 129.549 88.01 120.983 88.01ZM114.65 79H125.15C126.53 79 127.65 77.8807 127.65 76.5V66.5C127.65 65.1193 126.53 64 125.15 64H123.15C121.769 64 120.65 65.1193 120.65 66.5V71C120.65 71.8284 119.978 72.5 119.15 72.5H114.65C113.269 72.5 112.15 73.6193 112.15 75V76.5C112.15 77.8807 113.269 79 114.65 79Z" fill="url(#paint14_linear_6976_336)"/>
<path fill-rule="evenodd" clip-rule="evenodd" d="M41.7559 130.84C41.7559 128.6 42.1959 126.613 43.0759 124.88C43.9826 123.147 45.1959 121.813 46.7159 120.88C48.2626 119.947 49.9826 119.48 51.8759 119.48C53.5293 119.48 54.9693 119.813 56.1959 120.48C57.4493 121.147 58.4493 121.987 59.1959 123V119.84H64.8359V142H59.1959V138.76C58.4759 139.8 57.4759 140.667 56.1959 141.36C54.9426 142.027 53.4893 142.36 51.8359 142.36C49.9693 142.36 48.2626 141.88 46.7159 140.92C45.1959 139.96 43.9826 138.613 43.0759 136.88C42.1959 135.12 41.7559 133.107 41.7559 130.84ZM58.3959 127.44C58.9293 128.4 59.1959 129.56 59.1959 130.92C59.1959 132.28 58.9293 133.453 58.3959 134.44C57.8626 135.4 57.1426 136.147 56.2359 136.68C55.3293 137.187 54.3559 137.44 53.3159 137.44C52.3026 137.44 51.3426 137.173 50.4359 136.64C49.5559 136.107 48.8359 135.347 48.2759 134.36C47.7426 133.347 47.4759 132.173 47.4759 130.84C47.4759 129.507 47.7426 128.36 48.2759 127.4C48.8359 126.413 49.5559 125.667 50.4359 125.16C51.3159 124.653 52.2759 124.4 53.3159 124.4C54.3559 124.4 55.3293 124.667 56.2359 125.2C57.1426 125.707 57.8626 126.453 58.3959 127.44Z" fill="url(#paint15_linear_6976_336)"/>
<path fill-rule="evenodd" clip-rule="evenodd" d="M174.616 123.08C175.336 122.013 176.323 121.147 177.576 120.48C178.856 119.813 180.31 119.48 181.936 119.48C183.83 119.48 185.536 119.947 187.056 120.88C188.603 121.813 189.816 123.147 190.696 124.88C191.603 126.587 192.056 128.573 192.056 130.84C192.056 133.107 191.603 135.12 190.696 136.88C189.816 138.613 188.603 139.96 187.056 140.92C185.536 141.88 183.83 142.36 181.936 142.36C180.283 142.36 178.83 142.04 177.576 141.4C176.35 140.733 175.363 139.88 174.616 138.84V142H169.016V112.4H174.616V123.08ZM185.496 127.4C186.056 128.36 186.336 129.507 186.336 130.84C186.336 132.2 186.056 133.373 185.496 134.36C184.963 135.347 184.243 136.107 183.336 136.64C182.456 137.173 181.496 137.44 180.456 137.44C179.443 137.44 178.483 137.187 177.576 136.68C176.696 136.147 175.976 135.387 175.416 134.4C174.883 133.413 174.616 132.253 174.616 130.92C174.616 129.587 174.883 128.427 175.416 127.44C175.976 126.453 176.696 125.707 177.576 125.2C178.483 124.667 179.443 124.4 180.456 124.4C181.496 124.4 182.456 124.653 183.336 125.16C184.243 125.667 184.963 126.413 185.496 127.4Z" fill="url(#paint16_linear_6976_336)"/>
<defs>
<linearGradient id="paint0_linear_6976_336" x1="192" y1="2.4977e-06" x2="6.89513e-06" y2="142" gradientUnits="userSpaceOnUse">
<stop offset="1" stop-color="#00350E"/>
<stop offset="1" stop-color="#A7EA9D"/>
</linearGradient>
<linearGradient id="paint1_linear_6976_336" x1="192" y1="2.4977e-06" x2="6.89513e-06" y2="142" gradientUnits="userSpaceOnUse">
<stop offset="1" stop-color="#00350E"/>
<stop offset="1" stop-color="#A7EA9D"/>
</linearGradient>
<linearGradient id="paint2_linear_6976_336" x1="192" y1="2.4977e-06" x2="6.89513e-06" y2="142" gradientUnits="userSpaceOnUse">
<stop offset="1" stop-color="#00350E"/>
<stop offset="1" stop-color="#A7EA9D"/>
</linearGradient>
<linearGradient id="paint3_linear_6976_336" x1="192" y1="2.4977e-06" x2="6.89513e-06" y2="142" gradientUnits="userSpaceOnUse">
<stop offset="1" stop-color="#00350E"/>
<stop offset="1" stop-color="#A7EA9D"/>
</linearGradient>
<linearGradient id="paint4_linear_6976_336" x1="192" y1="2.4977e-06" x2="6.89513e-06" y2="142" gradientUnits="userSpaceOnUse">
<stop offset="1" stop-color="#00350E"/>
<stop offset="1" stop-color="#A7EA9D"/>
</linearGradient>
<linearGradient id="paint5_linear_6976_336" x1="192" y1="2.4977e-06" x2="6.89513e-06" y2="142" gradientUnits="userSpaceOnUse">
<stop offset="1" stop-color="#00350E"/>
<stop offset="1" stop-color="#A7EA9D"/>
</linearGradient>
<linearGradient id="paint6_linear_6976_336" x1="192" y1="2.4977e-06" x2="6.89513e-06" y2="142" gradientUnits="userSpaceOnUse">
<stop offset="1" stop-color="#00350E"/>
<stop offset="1" stop-color="#A7EA9D"/>
</linearGradient>
<linearGradient id="paint7_linear_6976_336" x1="192" y1="2.4977e-06" x2="6.89513e-06" y2="142" gradientUnits="userSpaceOnUse">
<stop offset="1" stop-color="#00350E"/>
<stop offset="1" stop-color="#A7EA9D"/>
</linearGradient>
<linearGradient id="paint8_linear_6976_336" x1="192" y1="2.4977e-06" x2="6.89513e-06" y2="142" gradientUnits="userSpaceOnUse">
<stop offset="1" stop-color="#00350E"/>
<stop offset="1" stop-color="#A7EA9D"/>
</linearGradient>
<linearGradient id="paint9_linear_6976_336" x1="192" y1="2.4977e-06" x2="6.89513e-06" y2="142" gradientUnits="userSpaceOnUse">
<stop offset="1" stop-color="#00350E"/>
<stop offset="1" stop-color="#A7EA9D"/>
</linearGradient>
<linearGradient id="paint10_linear_6976_336" x1="192" y1="2.4977e-06" x2="6.89513e-06" y2="142" gradientUnits="userSpaceOnUse">
<stop offset="1" stop-color="#00350E"/>
<stop offset="1" stop-color="#A7EA9D"/>
</linearGradient>
<linearGradient id="paint11_linear_6976_336" x1="192" y1="2.4977e-06" x2="6.89513e-06" y2="142" gradientUnits="userSpaceOnUse">
<stop offset="1" stop-color="#00350E"/>
<stop offset="1" stop-color="#A7EA9D"/>
</linearGradient>
<linearGradient id="paint12_linear_6976_336" x1="192" y1="2.4977e-06" x2="6.89513e-06" y2="142" gradientUnits="userSpaceOnUse">
<stop offset="1" stop-color="#00350E"/>
<stop offset="1" stop-color="#A7EA9D"/>
</linearGradient>
<linearGradient id="paint13_linear_6976_336" x1="192" y1="2.4977e-06" x2="6.89513e-06" y2="142" gradientUnits="userSpaceOnUse">
<stop offset="1" stop-color="#00350E"/>
<stop offset="1" stop-color="#A7EA9D"/>
</linearGradient>
<linearGradient id="paint14_linear_6976_336" x1="192" y1="2.4977e-06" x2="6.89513e-06" y2="142" gradientUnits="userSpaceOnUse">
<stop offset="1" stop-color="#00350E"/>
<stop offset="1" stop-color="#A7EA9D"/>
</linearGradient>
<linearGradient id="paint15_linear_6976_336" x1="192" y1="2.4977e-06" x2="6.89513e-06" y2="142" gradientUnits="userSpaceOnUse">
<stop offset="1" stop-color="#00350E"/>
<stop offset="1" stop-color="#A7EA9D"/>
</linearGradient>
<linearGradient id="paint16_linear_6976_336" x1="192" y1="2.4977e-06" x2="6.89513e-06" y2="142" gradientUnits="userSpaceOnUse">
<stop offset="1" stop-color="#00350E"/>
<stop offset="1" stop-color="#A7EA9D"/>
</linearGradient>
</defs>
</svg>
